<svg width="72" height="72" viewBox="0 0 72 72" fill="none" xmlns="http://www.w3.org/2000/svg">
<rect width="72" height="72" rx="36" fill="#0D5C63"/>
<g clip-path="url(#clip0)">
<path d="M35.9004 35.7044C38.5905 35.7044 40.6828 33.5697 40.6828 30.9499C40.6828 28.3301 38.4909 26.2925 35.8007 26.2925C33.1106 26.2925 31.0183 28.4271 31.0183 30.9499C31.0183 33.5697 33.2103 35.7044 35.9004 35.7044ZM35.8007 28.2331C35.9004 28.2331 35.9004 28.2331 35.8007 28.2331C37.3949 28.2331 38.6901 29.4945 38.6901 31.047C38.6901 32.5994 37.3949 33.7638 35.8007 33.7638C34.2066 33.7638 33.011 32.5024 33.011 31.047C33.011 29.4945 34.3062 28.2331 35.8007 28.2331Z" fill="white"/>
<path d="M50.6462 35.122C48.7531 33.4725 46.2623 32.5992 43.6718 32.6963H42.8747C42.6755 33.4725 42.3766 34.1517 41.978 34.7339C42.5758 34.6369 43.074 34.6369 43.6718 34.6369C45.5649 34.5398 47.4579 35.122 48.9524 36.1894V43.1755H50.9451V35.4131L50.6462 35.122Z" fill="white"/>
<path d="M41.3802 26.4859C41.8784 25.3215 43.2733 24.7394 44.5685 25.2245C45.7641 25.7097 46.3619 27.0681 45.8638 28.3295C45.4652 29.2027 44.5685 29.7849 43.6718 29.7849C43.4725 29.7849 43.1736 29.7849 42.9744 29.6879C43.074 30.1731 43.074 30.6582 43.074 31.0463V31.6285C43.2733 31.6285 43.4725 31.7255 43.6718 31.7255C46.1627 31.7255 48.1554 29.7849 48.1554 27.4562C48.1554 25.0304 46.1627 23.0898 43.7714 23.0898C42.1773 23.0898 40.7824 23.8661 39.9854 25.2245C40.4835 25.5156 40.9817 25.9037 41.3802 26.4859Z" fill="white"/>
<path d="M30.022 34.8306C29.6235 34.2484 29.3246 33.5692 29.1253 32.793H28.3282C25.7377 32.6959 23.2469 33.5692 21.3538 35.1217L21.0549 35.4128V43.1752H23.0476V36.189C24.6418 35.1217 26.4352 34.5395 28.3282 34.6365C28.926 34.6365 29.5238 34.7336 30.022 34.8306Z" fill="white"/>
<path d="M28.3281 31.6291C28.5274 31.6291 28.7267 31.6291 28.9259 31.5321V30.9499C28.9259 30.4648 28.9259 29.9796 29.0256 29.5915C28.8263 29.6885 28.5274 29.6885 28.3281 29.6885C27.0329 29.6885 25.9369 28.6212 25.9369 27.3598C25.9369 26.0984 27.0329 25.0311 28.3281 25.0311C29.3245 25.0311 30.2212 25.6133 30.6197 26.4865C31.0183 26.0014 31.6161 25.5162 32.1142 25.1281C30.819 23.0905 28.1289 22.4113 26.0366 23.6727C23.9442 24.9341 23.2468 27.5539 24.542 29.5915C25.3391 30.8529 26.734 31.6291 28.3281 31.6291Z" fill="white"/>
<path d="M44.0704 40.9435L43.8711 40.6524C41.8784 38.5177 39.0887 37.2563 36.0997 37.3534C33.1106 37.2563 30.2212 38.5177 28.2286 40.6524L28.0293 40.9435V48.3178C28.0293 49.1911 28.7267 49.9673 29.7231 49.9673H42.4762C43.3729 49.9673 44.17 49.1911 44.17 48.3178V40.9435H44.0704ZM42.0777 48.0267H30.022V41.6227C31.6161 40.0702 33.8081 39.294 36.0997 39.294C38.2916 39.1969 40.4836 40.0702 42.0777 41.6227V48.0267Z" fill="white"/>
</g>
<defs>
<clipPath id="clip0">
<rect width="32" height="26.353" fill="white" transform="translate(20 23)"/>
</clipPath>
</defs>
</svg>
