<svg width="72" height="72" viewBox="0 0 72 72" fill="none" xmlns="http://www.w3.org/2000/svg">
<rect width="72" height="72" rx="36" fill="#0D5C63"/>
<g clip-path="url(#clip0)">
<path opacity="0.15" d="M47.553 30.8301H25.4468C25.4367 30.8301 25.4299 30.8368 25.4299 30.847V33.925C25.4299 35.9432 27.0837 37.5801 29.1188 37.5801C30.4924 37.5801 31.6906 36.8376 32.3284 35.734C32.4263 35.5618 32.6119 35.4538 32.8111 35.4538C33.0102 35.4538 33.1924 35.5618 33.2937 35.734C33.9282 36.8376 35.1263 37.5801 36.4999 37.5801C37.8769 37.5801 39.0784 36.8342 39.7095 35.7272C39.8074 35.5585 39.9863 35.4538 40.1787 35.4538H40.1989C40.3947 35.4538 40.5702 35.5585 40.668 35.7272C41.3025 36.8342 42.504 37.5801 43.881 37.5801C45.9162 37.5801 47.5699 35.9432 47.5699 33.925V30.847C47.5699 30.8368 47.5632 30.8301 47.553 30.8301Z" fill="white"/>
<path d="M48.9875 28.4034V24.08C48.9875 23.4826 48.5049 23 47.9075 23H25.0925C24.4951 23 24.0125 23.4826 24.0125 24.08V28.4034C23.4489 28.4371 23 28.9062 23 29.48V33.9249C22.9979 34.7418 23.1633 35.5504 23.486 36.3009C23.6311 36.6451 23.81 36.9691 24.0125 37.2763V48.92C24.0125 49.514 24.4951 50 25.0925 50H47.9075C48.5049 50 48.9875 49.5174 48.9875 48.92V37.2763C49.1932 36.9683 49.3695 36.6418 49.514 36.3009C49.8346 35.5483 50 34.7484 50 33.9249V29.48C50 28.9062 49.5511 28.4371 48.9875 28.4034ZM26.4425 25.43H46.5575V28.4H26.4425V25.43ZM38.66 47.5734H34.34V44.06H38.66V47.5734ZM46.571 47.5734H40.82V42.98C40.82 42.3826 40.3374 41.9 39.74 41.9H33.26C32.6626 41.9 32.18 42.3826 32.18 42.98V47.5734H26.4425V39.3991C26.5404 39.4464 26.6416 39.4936 26.7463 39.5341C27.4989 39.8514 28.2988 40.01 29.1223 40.01C29.9458 40.01 30.7423 39.8514 31.4983 39.5341C31.964 39.3384 32.4028 39.0886 32.8044 38.7882C32.8111 38.7849 32.8179 38.7849 32.8246 38.7882C33.2275 39.0899 33.6662 39.3404 34.1308 39.5341C34.8834 39.8514 35.6833 40.01 36.5068 40.01C37.3303 40.01 38.1268 39.8514 38.8828 39.5341C39.3485 39.3384 39.7873 39.0886 40.1889 38.7882C40.1956 38.7849 40.2024 38.7849 40.2091 38.7882C40.612 39.0899 41.0507 39.3404 41.5153 39.5341C42.2679 39.8514 43.0678 40.01 43.8913 40.01C44.7148 40.01 45.5113 39.8514 46.2673 39.5341C46.3685 39.4903 46.4698 39.4464 46.571 39.3991V47.5734ZM47.57 33.9249C47.57 35.9431 45.9163 37.58 43.8811 37.58C42.5041 37.58 41.3026 36.8341 40.6681 35.7271C40.5703 35.5584 40.3948 35.4538 40.199 35.4538H40.1788C39.9864 35.4538 39.8075 35.5584 39.7096 35.7271C39.3858 36.2918 38.9183 36.7607 38.3546 37.0862C37.7908 37.4116 37.1509 37.582 36.5 37.58C35.1264 37.58 33.9283 36.8375 33.2938 35.7339C33.1925 35.5618 33.0103 35.4538 32.8111 35.4538C32.612 35.4538 32.4264 35.5618 32.3285 35.7339C32.0028 36.2964 31.5347 36.7632 30.9712 37.0873C30.4078 37.4114 29.7689 37.5813 29.1189 37.58C27.0838 37.58 25.43 35.9431 25.43 33.9249V30.8469C25.43 30.8368 25.4368 30.83 25.4469 30.83H47.5531C47.5633 30.83 47.57 30.8368 47.57 30.8469V33.9249Z" fill="white"/>
</g>
<defs>
<clipPath id="clip0">
<rect width="32" height="26.353" fill="white" transform="translate(20 23)"/>
</clipPath>
</defs>
</svg>
