<svg width="72" height="72" viewBox="0 0 72 72" fill="none" xmlns="http://www.w3.org/2000/svg">
<rect width="72" height="72" rx="36" fill="#0D5C63"/>
<path d="M48.7669 35.1883C48.3832 35.1911 48.0032 35.2643 47.645 35.4044L43.8181 32.2146C43.9123 31.8669 43.9793 31.5061 43.9793 31.1259C43.9793 28.8737 42.2015 27.0635 39.9897 27.0635C37.7778 27.0635 36.0001 28.8737 36.0001 31.1259C36.0001 31.7694 36.1596 32.369 36.4182 32.9085L31.7758 38.4951C31.59 38.4597 31.4015 38.4406 31.2125 38.4382C30.9268 38.4382 30.6571 38.487 30.3954 38.5585L26.3052 34.3937C26.377 34.1288 26.4249 33.8542 26.4249 33.5633C26.4249 31.7629 25.0014 30.3134 23.2332 30.3134C21.465 30.3134 20.0415 31.7629 20.0415 33.5633C20.0415 35.3638 21.465 36.8133 23.2332 36.8133C23.5189 36.8133 23.7886 36.7645 24.0503 36.693L28.1405 40.8578C28.0638 41.1278 28.0235 41.4071 28.0208 41.6881C28.0208 43.4886 29.4443 44.9381 31.2125 44.9381C32.9807 44.9381 34.4042 43.4886 34.4042 41.6881C34.4042 41.303 34.3276 40.9407 34.2079 40.5978L38.8566 35.0047C39.2189 35.1119 39.5939 35.1883 39.9897 35.1883C40.6195 35.1847 41.2394 35.0282 41.7978 34.7317L45.6263 37.9215C45.5962 38.0921 45.5791 38.2649 45.5752 38.4382C45.5752 40.2387 46.9987 41.6881 48.7669 41.6881C50.5351 41.6881 51.9586 40.2387 51.9586 38.4382C51.9586 36.6378 50.5351 35.1883 48.7669 35.1883Z" fill="white"/>
</svg>
