<svg width="72" height="72" viewBox="0 0 72 72" fill="none" xmlns="http://www.w3.org/2000/svg">
<rect width="72" height="72" rx="36" fill="#0D5C63"/>
<g clip-path="url(#clip0)">
<g clip-path="url(#clip1)">
<path d="M39.428 29.7495H47.4266V32.0464H39.428V29.7495Z" fill="white"/>
<path d="M39.428 35.4917H47.4266V37.7886H39.428V35.4917Z" fill="white"/>
<path d="M39.428 41.2339H47.4266V43.5308H39.428V41.2339Z" fill="white"/>
<path d="M49.7119 24.0073H22.2882C21.6823 24.0079 21.1014 24.2501 20.6729 24.6807C20.2445 25.1114 20.0035 25.6952 20.0029 26.3042V46.9761C20.0035 47.5851 20.2445 48.169 20.6729 48.5996C21.1014 49.0302 21.6823 49.2724 22.2882 49.273H49.7119C50.3177 49.2721 50.8985 49.0298 51.3269 48.5992C51.7553 48.1687 51.9963 47.585 51.9972 46.9761V26.3042C51.9966 25.6952 51.7557 25.1114 51.3272 24.6807C50.8988 24.2501 50.3178 24.0079 49.7119 24.0073ZM22.2882 26.3042H34.8574V46.9761H22.2882V26.3042ZM37.1427 46.9761V26.3042H49.7119L49.7142 46.9761H37.1427Z" fill="white"/>
</g>
</g>
<defs>
<clipPath id="clip0">
<rect width="32" height="26.353" fill="white" transform="translate(20 23)"/>
</clipPath>
<clipPath id="clip1">
<rect width="32" height="25.28" fill="white" transform="translate(20 24)"/>
</clipPath>
</defs>
</svg>
