<svg width="72" height="72" viewBox="0 0 72 72" fill="none" xmlns="http://www.w3.org/2000/svg">
<rect width="72" height="72" rx="36" fill="#0D5C63"/>
<g clip-path="url(#clip0)">
<g clip-path="url(#clip1)">
<path d="M48.3925 28.6837H45.0127V25.3039C45.0127 24.7064 44.7753 24.1333 44.3528 23.7107C43.9302 23.2882 43.3571 23.0508 42.7596 23.0508H29.2406C28.643 23.0508 28.0699 23.2882 27.6473 23.7107C27.2248 24.1333 26.9874 24.7064 26.9874 25.3039V28.6837H23.6077C22.7113 28.6837 21.8516 29.0398 21.2178 29.6736C20.584 30.3074 20.2279 31.1671 20.2279 32.0634V47.8356C20.2279 48.4332 20.4653 49.0063 20.8878 49.4288C21.3104 49.8514 21.8835 50.0888 22.4811 50.0888H49.519C50.1166 50.0888 50.6897 49.8514 51.1123 49.4288C51.5348 49.0063 51.7722 48.4332 51.7722 47.8356V32.0634C51.7722 31.1671 51.4161 30.3074 50.7823 29.6736C50.1485 29.0398 49.2888 28.6837 48.3925 28.6837ZM29.2406 25.3039H42.7596V28.6837H29.2406V25.3039ZM49.519 47.8356H22.4811V37.6964H31.4937V43.3293H40.5064V37.6964H49.519V47.8356ZM33.7469 37.6964H38.2532V41.0761H33.7469V37.6964ZM22.4811 35.4432V32.0634C22.4811 31.7647 22.5998 31.4781 22.811 31.2668C23.0223 31.0556 23.3089 30.9369 23.6077 30.9369H48.3925C48.6912 30.9369 48.9778 31.0556 49.1891 31.2668C49.4004 31.4781 49.519 31.7647 49.519 32.0634V35.4432H22.4811Z" fill="white"/>
</g>
</g>
<defs>
<clipPath id="clip0">
<rect width="32" height="26.353" fill="white" transform="translate(20 23)"/>
</clipPath>
<clipPath id="clip1">
<rect width="32" height="27.1392" fill="white" transform="translate(20 23)"/>
</clipPath>
</defs>
</svg>
