<svg width="72" height="72" viewBox="0 0 72 72" fill="none" xmlns="http://www.w3.org/2000/svg">
<rect width="72" height="72" rx="36" fill="#0D5C63"/>
<g clip-path="url(#clip0)">
<path d="M31.805 41.4128C31.3751 40.9715 31.5992 41.0959 30.5621 40.811C30.0916 40.6815 29.6779 40.4327 29.3039 40.1346L27.059 45.7835C26.8418 46.3304 27.2475 46.9246 27.8224 46.9022L30.4295 46.8001L32.2226 48.7441C32.6185 49.1726 33.3132 49.0391 33.5304 48.4922L36.1058 42.0115C35.5694 42.3182 34.9742 42.498 34.3586 42.498C33.3938 42.498 32.4873 42.1125 31.805 41.4128ZM45.9402 45.7835L43.6954 40.1346C43.3213 40.4332 42.9077 40.6815 42.4371 40.811C41.3946 41.0974 41.6232 40.9725 41.1942 41.4128C40.5119 42.1125 39.6049 42.498 38.6401 42.498C38.0246 42.498 37.4293 42.3177 36.893 42.0115L39.4684 48.4922C39.6856 49.0391 40.3808 49.1726 40.7761 48.7441L42.5697 46.8001L45.1768 46.9022C45.7517 46.9246 46.1575 46.3299 45.9402 45.7835ZM40.0126 40.2636C40.7687 39.4739 40.8553 39.542 41.9319 39.2409C42.6192 39.0484 43.1565 38.4873 43.3406 37.7692C43.7107 36.327 43.6147 36.5012 44.6246 35.446C45.1278 34.9204 45.3242 34.1541 45.1402 33.4361C44.7706 31.9949 44.7701 32.196 45.1402 30.7533C45.3242 30.0352 45.1278 29.2689 44.6246 28.7434C43.6147 27.6881 43.7107 27.8618 43.3406 26.4201C43.1565 25.7021 42.6192 25.1409 41.9319 24.9485C40.5525 24.562 40.7187 24.6631 39.7078 23.6073C39.2046 23.0818 38.4709 22.8761 37.7836 23.0686C36.4046 23.4545 36.5971 23.455 35.2156 23.0686C34.5284 22.8761 33.7946 23.0812 33.2914 23.6073C32.2815 24.6626 32.4478 24.562 31.0678 24.9485C30.3805 25.1409 29.8432 25.7021 29.6591 26.4201C29.2895 27.8618 29.385 27.6881 28.3751 28.7434C27.8719 29.2689 27.675 30.0352 27.8596 30.7533C28.2292 32.1934 28.2297 31.9923 27.8596 33.4355C27.6755 34.1536 27.8719 34.9199 28.3751 35.446C29.385 36.5012 29.289 36.327 29.6591 37.7692C29.8432 38.4873 30.3805 39.0484 31.0678 39.2409C32.1751 39.5506 32.2578 39.5019 32.9866 40.2636C33.6412 40.9476 34.661 41.07 35.4477 40.5591C35.7623 40.3542 36.1272 40.2453 36.4999 40.2453C36.8725 40.2453 37.2374 40.3542 37.552 40.5591C38.3383 41.07 39.358 40.9476 40.0126 40.2636ZM31.8317 31.9334C31.8317 29.2405 33.9217 27.0574 36.4996 27.0574C39.0775 27.0574 41.1675 29.2405 41.1675 31.9334C41.1675 34.6264 39.0775 36.8094 36.4996 36.8094C33.9217 36.8094 31.8317 34.6264 31.8317 31.9334Z" fill="white"/>
</g>
<defs>
<clipPath id="clip0">
<rect width="19" height="26" fill="white" transform="translate(27 23)"/>
</clipPath>
</defs>
</svg>
